<svg width="22" height="19" viewBox="0 0 22 19" fill="none" xmlns="http://www.w3.org/2000/svg">
<path fill-rule="evenodd" clip-rule="evenodd" d="M11.7844 18.6524C11.8591 18.7839 11.976 18.8871 12.1167 18.9457C12.2019 18.9799 12.2928 18.9982 12.3848 19C12.4927 18.9958 12.5982 18.9666 12.6925 18.9148C12.7869 18.8629 12.8675 18.7898 12.9279 18.7014L21.8654 7.16586C21.9376 7.06944 21.9825 6.95584 21.9959 6.83665C22.0092 6.71746 21.9902 6.59692 21.941 6.4873C21.8842 6.3731 21.7962 6.27692 21.6868 6.20973C21.5773 6.14254 21.4511 6.10705 21.3222 6.10731H18.0566L19.246 0.828086C19.2687 0.727943 19.2681 0.624013 19.2443 0.5241C19.2206 0.424201 19.1741 0.330924 19.1085 0.251314C19.0437 0.172586 18.9621 0.109167 18.8692 0.0657113C18.7764 0.0222691 18.675 -0.000103322 18.5722 0.000242749H11.6973C11.5393 -0.00392775 11.3847 0.0457477 11.2595 0.140911C11.1343 0.236087 11.0461 0.370919 11.0098 0.522729L10.4974 2.71428H0V4.5238H10.0744L9.43974 7.23809H1.83334V9.04762H9.01666L8.94736 9.34405C8.9231 9.4452 8.92271 9.5505 8.94621 9.65181C8.96972 9.75313 9.01649 9.84777 9.08292 9.92842C9.14935 10.0091 9.23367 10.0736 9.32937 10.117C9.42507 10.1604 9.52958 10.1815 9.63485 10.1787H12.9554L12.7091 11.7619H8.24999V13.5714H12.4275L11.7042 18.2196C11.6815 18.3687 11.7097 18.5209 11.7844 18.6524ZM4.58334 11.7619H7.33334V13.5714H4.58334V11.7619Z" fill="#FFC107"/>
</svg>
